<svg xmlns="http://www.w3.org/2000/svg" width="147" height="30" viewBox="0 0 147 30" fill="none">
  <g clip-path="url(#clip0_2081_1115)">
    <path d="M28.4552 22.5903C28.4552 22.6269 28.4561 22.6644 28.4561 22.7011C28.4561 23.3342 28.3731 23.9487 28.2186 24.5329C28.1943 24.6258 28.0682 24.643 28.0219 24.5582C27.4129 23.4418 26.2259 22.6872 24.864 22.7003C22.9346 22.7182 21.3581 24.3015 21.3418 26.2344C21.3305 27.5977 22.0825 28.7858 23.1956 29.3954C23.2802 29.4418 23.2631 29.5673 23.1704 29.5926C22.585 29.7482 21.9695 29.8313 21.3353 29.8305C17.3961 29.8264 14.191 26.5783 14.2284 22.631C14.2618 19.1156 16.8335 16.2081 20.1954 15.6621C20.2385 15.6548 20.2702 15.6181 20.2702 15.5749C20.2702 15.5309 20.2377 15.4934 20.1938 15.4869C17.5262 15.099 15.1878 13.3706 14.0569 10.8551L13.9146 10.5389C13.3528 9.29052 12.0942 8.42592 10.6364 8.43978C8.707 8.4577 7.13049 10.041 7.11423 11.9739C7.10284 13.3372 7.85492 14.5253 8.96799 15.1349C9.05255 15.1813 9.03547 15.3068 8.94278 15.3321C8.31755 15.4983 7.65816 15.5814 6.97763 15.5684C3.11075 15.4959 -0.00730463 12.3023 1.28532e-05 8.42592C0.00733033 4.4941 3.18962 1.30872 7.11423 1.30872C10.6534 1.30872 13.5886 3.89842 14.1366 7.29079C14.1439 7.33642 14.1829 7.36983 14.2284 7.36983C14.274 7.36983 14.313 7.33642 14.3203 7.29079C14.8683 3.89842 17.8034 1.30872 21.3427 1.30872C25.2713 1.30872 28.4569 4.50062 28.4569 8.43896C28.4569 9.07213 28.3739 9.68655 28.2195 10.2708C28.1951 10.3637 28.069 10.3808 28.0227 10.2961C27.4137 9.17969 26.2267 8.42511 24.8648 8.43815C22.9354 8.45607 21.3589 10.0394 21.3427 11.9723C21.3305 13.4318 22.1931 14.6908 23.4371 15.2538L23.7525 15.3965C26.56 16.6677 28.3845 19.4383 28.4536 22.5145C28.4536 22.5389 28.4552 22.5634 28.4552 22.5878V22.5903Z" fill="currentColor"/>
    <path d="M58.3406 10.8314C58.791 10.8314 59.161 10.763 59.4512 10.6269C59.7415 10.4908 59.9667 10.3066 60.1269 10.0744C60.287 9.84296 60.396 9.57567 60.4553 9.27254C60.5147 8.9694 60.544 8.65811 60.544 8.33705V8.0168H62.8904V8.33705C62.8904 9.82177 62.5018 10.9651 61.7261 11.7661C60.9497 12.5679 59.8212 12.9689 58.3398 12.9689C56.8584 12.9689 55.7917 12.5353 54.9624 11.6683C54.133 10.8013 53.7184 9.53656 53.7184 7.87419V5.09543C53.7184 4.30011 53.8249 3.58464 54.0387 2.94903C54.2517 2.31423 54.5599 1.77967 54.9632 1.34615C55.3656 0.912629 55.8518 0.580155 56.421 0.348728C56.9901 0.117301 57.63 0.00158691 58.3406 0.00158691C59.0512 0.00158691 59.7268 0.108337 60.296 0.321837C60.8651 0.535337 61.3416 0.844993 61.727 1.24836C62.1115 1.65254 62.4026 2.13903 62.5977 2.70945C62.7937 3.27987 62.8913 3.92119 62.8913 4.63339V4.95446H60.5448V4.63339C60.5448 4.33678 60.509 4.03934 60.4383 3.74273C60.3675 3.44611 60.2488 3.17882 60.083 2.94088C59.9171 2.70375 59.6919 2.51062 59.4073 2.36231C59.1227 2.214 58.7674 2.13985 58.3406 2.13985C57.9495 2.13985 57.6121 2.214 57.3275 2.36231C57.043 2.51062 56.8055 2.71271 56.6161 2.96777C56.4267 3.22364 56.2876 3.52026 56.1982 3.85844C56.1096 4.19662 56.0649 4.55028 56.0649 4.9186V8.05428C56.0649 8.45847 56.1063 8.82924 56.1893 9.16742C56.2722 9.50559 56.4023 9.79977 56.5803 10.0491C56.7584 10.2985 56.9917 10.4916 57.282 10.6277C57.5723 10.7646 57.9243 10.8322 58.3398 10.8322H58.3406V10.8314Z" fill="currentColor"/>
    <path d="M65.7354 5.09548C65.7354 3.48037 66.1411 2.22708 66.9533 1.33641C67.7647 0.445742 68.8876 0 70.3218 0C71.756 0 72.878 0.444927 73.6903 1.33641C74.5017 2.22708 74.9074 3.48037 74.9074 5.09548V7.87424C74.9074 9.53742 74.5017 10.8021 73.6903 11.6683C72.8788 12.5354 71.756 12.9689 70.3218 12.9689C68.8876 12.9689 67.7647 12.5354 66.9533 11.6683C66.1419 10.8013 65.7354 9.5366 65.7354 7.87424V5.09548ZM70.321 10.8315C70.7478 10.8315 71.1031 10.763 71.3877 10.6269C71.6723 10.4908 71.9032 10.2977 72.0812 10.0484C72.2593 9.799 72.3837 9.50238 72.4544 9.15768C72.526 8.81298 72.5609 8.43325 72.5609 8.01766V4.95369C72.5609 4.56173 72.5195 4.1934 72.4365 3.84952C72.3536 3.50564 72.2235 3.2082 72.0455 2.95885C71.8674 2.70949 71.6365 2.51066 71.3519 2.36235C71.0674 2.21404 70.7234 2.13989 70.321 2.13989C69.9185 2.13989 69.5746 2.21404 69.29 2.36235C69.0054 2.51066 68.7745 2.70949 68.5965 2.95885C68.4184 3.2082 68.2883 3.50564 68.2054 3.84952C68.1225 4.19421 68.081 4.56254 68.081 4.95369V8.01766C68.081 8.43325 68.1168 8.8138 68.1875 9.15768C68.2583 9.50238 68.3827 9.799 68.5607 10.0484C68.7388 10.2977 68.9697 10.4908 69.2542 10.6269C69.5388 10.7638 69.8941 10.8315 70.321 10.8315Z" fill="currentColor"/>
    <path d="M86.8154 0.24939V8.40884C86.8154 9.83407 86.4389 10.9505 85.6869 11.758C84.934 12.5656 83.8177 12.9697 82.3363 12.9697C80.8549 12.9697 79.7378 12.5664 78.9857 11.758C78.2328 10.9505 77.8572 9.83407 77.8572 8.40884V0.24939H80.2036V8.40884C80.2036 9.14549 80.3752 9.72162 80.7191 10.1372C81.063 10.5528 81.6021 10.7606 82.3363 10.7606C83.0705 10.7606 83.6103 10.5528 83.9534 10.1372C84.2974 9.72162 84.4689 9.14549 84.4689 8.40884V0.24939H86.8154Z" fill="currentColor"/>
    <path d="M96.0402 11.5444H96.3598V0.250122H98.7063V12.7203H94.1206L92.6628 1.426H92.3433V12.7203H89.9968V0.250122H94.5824L96.0402 11.5444Z" fill="currentColor"/>
    <path d="M101.889 0.24939H110.847V2.49358H107.541V12.7188H105.194V2.49358H101.889V0.24939Z" fill="currentColor"/>
    <path d="M114.064 0.24939H122.382V2.49358H119.396V10.4746H122.382V12.7196H114.064V10.4746H117.05V2.49358H114.064V0.24939Z" fill="currentColor"/>
    <path d="M132.011 11.5444H132.33V0.250122H134.677V12.7203H130.091L128.633 1.426H128.314V12.7203H125.967V0.250122H130.553L132.011 11.5444Z" fill="currentColor"/>
    <path d="M141.525 6.41315H146.857V12.7195H144.724V11.3302H144.405C144.262 11.793 143.99 12.1825 143.587 12.4971C143.184 12.8116 142.579 12.9689 141.774 12.9689C141.205 12.9689 140.672 12.8621 140.174 12.6478C139.676 12.4343 139.243 12.1165 138.876 11.6944C138.508 11.2731 138.218 10.75 138.005 10.1266C137.792 9.50319 137.686 8.7755 137.686 7.94432V5.02295C137.686 4.2154 137.801 3.49993 138.032 2.87654C138.263 2.25316 138.583 1.72756 138.992 1.29974C139.401 0.871927 139.89 0.548418 140.459 0.329214C141.028 0.109195 141.656 0 142.343 0C143.03 0 143.688 0.115714 144.245 0.347141C144.802 0.578569 145.276 0.899633 145.667 1.30871C146.058 1.71778 146.354 2.19938 146.555 2.75187C146.757 3.30436 146.858 3.89515 146.858 4.52424V4.73774H144.511V4.52424C144.511 3.77618 144.319 3.20902 143.934 2.82276C143.549 2.43732 143.006 2.24338 142.308 2.24338C141.609 2.24338 141.099 2.46584 140.673 2.91159C140.246 3.35651 140.033 4.12006 140.033 5.2006V7.83675C140.033 9.7607 140.815 10.7231 142.379 10.7231C143.079 10.7231 143.609 10.5365 143.971 10.1616C144.332 9.78759 144.513 9.28562 144.513 8.65653H141.527V6.41152L141.525 6.41315Z" fill="currentColor"/>
    <path d="M61.7359 20.9149V22.376H63.3709V24.6202H61.7359V29.7507H57.2925C56.6998 29.7507 56.173 29.6675 55.7103 29.5013C55.2485 29.3351 54.8631 29.1069 54.555 28.8152C54.2468 28.5243 54.0127 28.1804 53.8525 27.7819C53.6923 27.3842 53.6127 26.9532 53.6127 26.4903V26.2768C53.6127 25.5646 53.8111 24.9917 54.2078 24.5574C54.6046 24.1239 55.1054 23.824 55.7095 23.6578V23.3367C55.1054 23.1705 54.6046 22.8739 54.2078 22.446C53.8111 22.0182 53.6127 21.4486 53.6127 20.7356V20.5221C53.6127 20.0592 53.6923 19.629 53.8525 19.2305C54.0127 18.8328 54.246 18.4914 54.555 18.2062C54.8631 17.921 55.2485 17.6961 55.7103 17.529C56.1722 17.3628 56.6998 17.2797 57.2925 17.2797H59.2301V19.4171H57.5235C57.0259 19.4171 56.6226 19.5328 56.3144 19.7642C56.0063 19.9957 55.8526 20.355 55.8526 20.8423V20.9491C55.8526 21.4478 56.0063 21.8104 56.3144 22.0353C56.6226 22.2611 57.0251 22.3735 57.5235 22.3735H59.4967V20.9124H61.7359V20.9149ZM59.4959 24.5134H57.5226C57.0251 24.5134 56.6218 24.6381 56.3136 24.8874C56.0055 25.1368 55.8518 25.5108 55.8518 26.0095V26.1163C55.8518 26.615 56.0055 26.989 56.3136 27.2384C56.6218 27.4877 57.0242 27.6124 57.5226 27.6124H59.4959V24.5126V24.5134Z" fill="currentColor"/>
    <path d="M77.7507 21.0924C77.7507 20.5937 77.558 20.1602 77.1734 19.7919C76.788 19.4236 76.2457 19.2394 75.5473 19.2394C74.9546 19.2394 74.4871 19.3616 74.1431 19.6045C73.7992 19.8481 73.6277 20.1773 73.6277 20.5929C73.6277 20.8064 73.6691 20.9995 73.7521 21.1715C73.835 21.3434 73.9797 21.4982 74.1879 21.6343C74.3952 21.7712 74.6676 21.8927 75.0058 21.9994C75.344 22.1062 75.7725 22.2072 76.2945 22.3025C77.5978 22.5405 78.593 22.9382 79.2808 23.4963C79.9678 24.0545 80.3118 24.88 80.3118 25.9728V26.1863C80.3118 26.7681 80.2077 27.2937 80.0004 27.7631C79.793 28.2325 79.4938 28.6334 79.1028 28.9659C78.7117 29.2983 78.2377 29.5534 77.6807 29.7318C77.1238 29.9103 76.4953 29.9991 75.7969 29.9991C74.979 29.9991 74.2594 29.8834 73.6374 29.652C73.0154 29.4206 72.4967 29.0995 72.0821 28.6896C71.6674 28.2797 71.3536 27.7989 71.1397 27.2464C70.9267 26.694 70.8202 26.0918 70.8202 25.4382V24.9037H73.1667V25.3315C73.1667 26.0795 73.3829 26.676 73.8155 27.1218C74.248 27.5675 74.9204 27.79 75.8327 27.79C76.5433 27.79 77.0709 27.636 77.4149 27.3271C77.7588 27.0183 77.9303 26.65 77.9303 26.223C77.9303 26.0209 77.8946 25.8286 77.8238 25.6436C77.7523 25.4594 77.6279 25.2932 77.4506 25.1449C77.2726 24.9966 77.0303 24.8629 76.7221 24.7439C76.414 24.625 76.0229 24.5239 75.5489 24.4408C74.9204 24.3341 74.3464 24.1947 73.8244 24.022C73.3024 23.85 72.8496 23.621 72.465 23.3358C72.0796 23.0506 71.7804 22.6945 71.5674 22.2667C71.3544 21.8389 71.2479 21.3165 71.2479 20.6988V20.5921C71.2479 20.082 71.3511 19.6093 71.5593 19.1758C71.7666 18.7423 72.0568 18.365 72.43 18.0448C72.8032 17.7237 73.2537 17.4743 73.7813 17.2967C74.3082 17.1182 74.8977 17.0294 75.5497 17.0294C76.2839 17.0294 76.936 17.1337 77.5051 17.3415C78.0743 17.5493 78.5507 17.8313 78.9361 18.1874C79.3207 18.5435 79.6117 18.9534 79.8069 19.4162C80.0028 19.8791 80.1004 20.3664 80.1004 20.8773V21.5186H77.7539V21.0908L77.7507 21.0924Z" fill="currentColor"/>
    <path d="M82.1761 22.1258C82.1761 20.5106 82.5819 19.2574 83.3941 18.3667C84.2055 17.476 85.3284 17.0303 86.7626 17.0303C88.1968 17.0303 89.3188 17.4752 90.1311 18.3667C90.9425 19.2574 91.3482 20.5106 91.3482 22.1258V24.9045C91.3482 26.5677 90.9425 27.8324 90.1311 28.6986C89.3196 29.5657 88.1968 29.9992 86.7626 29.9992C85.3284 29.9992 84.2055 29.5657 83.3941 28.6986C82.5827 27.8316 82.1761 26.5669 82.1761 24.9045V22.1258ZM86.7626 27.8625C87.1894 27.8625 87.5447 27.7941 87.8293 27.658C88.1139 27.5219 88.3448 27.3288 88.5228 27.0794C88.7009 26.8301 88.8253 26.5335 88.896 26.1888C88.9676 25.8441 89.0025 25.4643 89.0025 25.0487V21.9848C89.0025 21.5928 88.9611 21.2245 88.8781 20.8806C88.7952 20.5359 88.6651 20.2393 88.4871 19.9899C88.309 19.7406 88.0781 19.5418 87.7935 19.3934C87.509 19.2451 87.165 19.171 86.7626 19.171C86.3601 19.171 86.0162 19.2451 85.7316 19.3934C85.4471 19.5418 85.2162 19.7406 85.0381 19.9899C84.86 20.2393 84.7299 20.5367 84.647 20.8806C84.5641 21.2253 84.5226 21.5928 84.5226 21.9848V25.0487C84.5226 25.4643 84.5584 25.8449 84.6291 26.1888C84.6999 26.5335 84.8243 26.8301 85.0023 27.0794C85.1804 27.3288 85.4113 27.5219 85.6959 27.658C85.9804 27.7949 86.3357 27.8625 86.7626 27.8625Z" fill="currentColor"/>
    <path d="M102.119 29.7507H99.773V26.0095C99.773 25.7243 99.699 25.4929 99.5511 25.3144C99.4031 25.136 99.1567 25.0471 98.8136 25.0471H96.1119V29.7499H93.7654V17.2797H98.5291C99.1689 17.2797 99.7316 17.3685 100.218 17.5469C100.703 17.7254 101.109 17.9715 101.435 18.286C101.761 18.6006 102.01 18.9657 102.181 19.3813C102.353 19.7968 102.439 20.2426 102.439 20.7177V21.1455C102.439 21.6564 102.302 22.1339 102.03 22.5797C101.758 23.0254 101.337 23.3669 100.768 23.604V23.9251C101.183 23.9723 101.511 24.1328 101.754 24.4058C101.998 24.6788 102.119 25.0235 102.119 25.4391V29.7499L102.119 29.7507ZM96.1119 22.803H98.3518C98.921 22.803 99.3527 22.6693 99.6494 22.402C99.9454 22.1348 100.094 21.7583 100.094 21.271V21.0575C100.094 20.6419 99.9462 20.2825 99.6494 19.9794C99.3535 19.6762 98.921 19.5247 98.3518 19.5247H96.1119V22.8021V22.803Z" fill="currentColor"/>
    <path d="M104.573 17.2805H113.531V19.5247H110.225V29.7499H107.878V19.5247H104.573V17.2805Z" fill="currentColor"/>
    <path d="M116.036 17.2805H124.355V19.5247H121.368V27.5057H124.355V29.7499H116.036V27.5057H119.023V19.5247H116.036V17.2805Z" fill="currentColor"/>
    <path d="M133.029 28.5748H133.349V17.2805H135.695V29.7507H131.11L129.652 18.4564H129.332V29.7507H126.986V17.2805H131.571L133.029 28.5748Z" fill="currentColor"/>
    <path d="M141.667 23.4442H146.999V29.7506H144.866V28.3613H144.547C144.405 28.8241 144.132 29.2136 143.729 29.5282C143.326 29.8427 142.722 30 141.916 30C141.347 30 140.814 29.8932 140.316 29.6789C139.818 29.4654 139.386 29.1476 139.018 28.7255C138.651 28.3042 138.36 27.7811 138.147 27.1577C137.934 26.5343 137.828 25.8066 137.828 24.9754V22.054C137.828 21.2465 137.943 20.531 138.174 19.9076C138.405 19.2842 138.725 18.7586 139.134 18.3308C139.543 17.903 140.032 17.5795 140.601 17.3595C141.17 17.1395 141.798 17.0303 142.485 17.0303C143.172 17.0303 143.83 17.146 144.387 17.3774C144.944 17.6088 145.418 17.9299 145.809 18.3398C146.2 18.7497 146.496 19.2305 146.697 19.783C146.899 20.3354 147 20.9262 147 21.5553V21.7688H144.653V21.5553C144.653 20.8073 144.461 20.2401 144.076 19.8539C143.691 19.4684 143.149 19.2745 142.45 19.2745C141.752 19.2745 141.241 19.4969 140.815 19.9427C140.388 20.3876 140.175 21.1511 140.175 22.2317V24.8678C140.175 26.7918 140.957 27.7542 142.522 27.7542C143.221 27.7542 143.751 27.5667 144.113 27.1927C144.474 26.8187 144.655 26.3167 144.655 25.6876H141.669V23.4426L141.667 23.4442Z" fill="currentColor"/>
  </g>
  <defs>
    <clipPath id="clip0_2081_1115">
      <rect width="147" height="30" fill="white"/>
    </clipPath>
  </defs>
</svg>