<svg id="Layer_2" xmlns="http://www.w3.org/2000/svg" viewBox="0 0 1149.87 324.52" fill="none">
    <g id="Layer_1-2">
        <path class="cls-1" d="M488.7,0c-18.24,0-37.27,9.78-50.76,20.09l3.62,4.15c4.76-3.44,9.52-6.08,12.95-6.08,9.52,0,5.9,15.15,4.58,23.87l-4.23,29.61c-5.29-1.85-11.1-3.17-17.45-3.17-49.44,0-87.5,44.41-87.5,90.41,0,30.93,16.25,49.23,39.61,52.02,20.41,2.43,37.16-4.78,48-23.29,0,20.88,13.64,24.14,28.18,24.14,18.24,0,39.12-12.16,42.56-35.42l-5.17.57c-1.86,12.02-8.04,19.14-14.65,19.14-6.19,0-3.44-15.74-2.91-19.18l23-147.78c3.44-20.36-5.02-29.08-19.83-29.08ZM450.11,100.46l-10.81,68.47c-1.59,9.78-13.75,25.38-23.53,25.38-12.42,0-16.16-10.04-16.16-24.58,0-43.88,16.92-94.75,39.39-94.75,12.28,0,14.95,6.45,11.1,25.49Z" fill="currentColor"/>
        <path class="cls-1" d="M576.47.26c-16.65,0-32.78,14.54-32.78,31.99,0,14.01,9.78,25.11,23.53,25.11,16.92,0,32.78-15.07,32.78-32.52,0-14.01-9.78-24.58-23.53-24.58Z" fill="currentColor"/>
        <path class="cls-1" d="M575.15,196.03c-6.35,0-3.32-16.55-2.91-19.18l12.42-78.25c3.17-20.09-4.23-29.08-19.03-29.08-18.24,0-37.27,9.78-50.76,20.09l3.62,4.15c4.76-3.44,9.52-6.08,12.95-6.08,8.46,0,5.37,13.83,4.05,22.55l-8.99,56.84c-5.82,38.33,8.99,44.68,25.91,44.68,18.24,0,39.12-12.16,42.56-35.42l-5.17.57c-1.85,12.05-8.04,19.14-14.65,19.14Z" fill="currentColor"/>
        <path class="cls-1" d="M808.58.26c-16.65,0-32.78,14.54-32.78,31.99,0,14.01,9.78,25.11,23.53,25.11,16.92,0,32.78-15.07,32.78-32.52,0-14.01-9.78-24.58-23.53-24.58Z" fill="currentColor"/>
        <path class="cls-1" d="M807.26,196.03c-6.35,0-3.32-16.55-2.91-19.18l12.42-78.25c3.17-20.09-4.23-29.08-19.03-29.08-18.24,0-37.27,9.78-50.76,20.09l3.62,4.15c4.76-3.44,9.52-6.08,12.95-6.08,8.46,0,5.37,13.83,4.05,22.55l-8.99,56.84c-5.82,38.33,8.99,44.68,25.91,44.68,18.24,0,39.12-12.16,42.56-35.42l-5.17.57c-1.85,12.05-8.04,19.14-14.65,19.14Z" fill="currentColor"/>
        <path class="cls-1" d="M716.58,68.47c-13.48,0-26.7,10.05-26.7,26.44,0,10.05,5.82,17.45,18.24,18.24,2.91-6.87,10.31-9.25,17.45-9.25s9.7,6.08,9.7,16.39c0,36.22-43.01,73.73-66.8,73.73-11.37,0-11.37-2.88-7.93-25.35l11.1-70.05c3.17-20.09-4.23-29.08-19.03-29.08-18.24,0-37.27,9.78-50.76,20.09l3.62,4.15c4.76-3.44,9.52-6.08,12.95-6.08,8.44,0,5.37,14.09,4.05,22.82l-9.78,61.6c-4.23,26.17,6.87,38.86,30.93,38.86,47.58,0,102.31-49.44,102.31-104.95,0-26.17-14.8-37.54-29.34-37.54Z" fill="currentColor"/>
        <path class="cls-1" d="M980.68,196.03c-6.3,0-3.44-15.74-2.91-19.18l10.31-65.3c3.97-25.38-2.11-43.09-22.73-43.09-19.03,0-42.59,9.55-63.48,43.13l2.67-12.99c4.23-20.09-5.02-29.08-19.83-29.08-18.24,0-37.27,9.78-50.76,20.09l3.62,4.15c4.76-3.44,9.52-6.08,12.95-6.08,8.5,0,5.37,14.09,4.05,22.82l-15.6,100.46c15.86-2.38,31.72-3.44,47.85-2.64l13.23-83.9c10.84-17.71,25.36-36.65,33.82-36.65,6.08,0,9.25,7.4,6.34,26.44l-8.19,52.87c-5.82,38.33,8.99,44.68,25.91,44.68,18.24,0,39.12-12.16,42.56-35.42l-5.17.57c-1.75,11.82-8.04,19.14-14.65,19.14Z" fill="currentColor"/>
        <path class="cls-1" d="M1101.23,178.44c-29.08,0-40.98-23.79-40.98-49.17h0c63.45,10.31,89.62-11.63,89.62-31.19,0-24.59-30.14-29.61-50.76-29.61-50.23,0-88.82,40.71-88.82,85.92,0,35.42,23.53,56.57,56.57,56.57s61.51-22.51,78.43-50.8l-3.71-1.86c-11.63,14.54-27.66,20.14-40.35,20.14ZM1096.73,70.58c8.99,0,14.01,7.67,14.01,17.18,0,16.39-14.8,36.17-50.23,34.06,1.59-26.7,15.86-51.24,36.22-51.24Z" fill="currentColor"/>
        <path class="cls-1" d="M415.91,318.6c-1.57,1.24-3.28,2.31-5.15,3.2s-3.9,1.57-6.12,2.03c-2.22.46-4.7.69-7.46.69-4.16,0-8.02-.76-11.59-2.27s-6.65-3.58-9.24-6.2c-2.59-2.62-4.62-5.71-6.08-9.28-1.46-3.57-2.19-7.38-2.19-11.43v-.16c0-4.05.73-7.85,2.19-11.39,1.46-3.54,3.48-6.64,6.08-9.32,2.59-2.67,5.7-4.78,9.32-6.32,3.62-1.54,7.62-2.31,11.99-2.31,2.65,0,5.06.22,7.25.65,2.19.43,4.17,1.03,5.96,1.78,1.78.76,3.43,1.67,4.94,2.75,1.51,1.08,2.92,2.27,4.21,3.57l-7.94,9.16c-2.22-2-4.47-3.57-6.77-4.7-2.3-1.13-4.88-1.7-7.74-1.7-2.38,0-4.58.46-6.6,1.38-2.03.92-3.77,2.19-5.23,3.81s-2.59,3.5-3.4,5.63c-.81,2.13-1.22,4.42-1.22,6.85v.16c0,2.43.41,4.73,1.22,6.89.81,2.16,1.93,4.05,3.36,5.67,1.43,1.62,3.16,2.91,5.19,3.85,2.03.95,4.25,1.42,6.69,1.42,3.24,0,5.98-.59,8.23-1.78,2.24-1.19,4.47-2.81,6.69-4.86l7.94,8.02c-1.46,1.57-2.97,2.97-4.54,4.21Z" fill="currentColor"/>
        <path class="cls-1" d="M495.25,323.54v-56.73h42.71v11.1h-30.39v11.51h26.74v11.1h-26.74v11.91h30.79v11.1h-43.11Z" fill="currentColor"/>
        <path class="cls-1" d="M614.37,323.54v-56.73h12.48v45.46h28.28v11.26h-40.76Z" fill="currentColor"/>
        <path class="cls-1" d="M729.36,323.54v-56.73h12.48v45.46h28.28v11.26h-40.76Z" fill="currentColor"/>
        <path class="cls-1" d="M886.58,323.54l-5.19-12.72h-23.99l-5.19,12.72h-12.72l24.31-57.13h11.51l24.31,57.13h-13.05ZM869.4,281.41l-7.54,18.4h15.07l-7.54-18.4Z" fill="currentColor"/>
        <path class="cls-1" d="M1007.64,323.54l-12.16-18.15h-9.81v18.15h-12.48v-56.73h25.93c6.75,0,12.01,1.65,15.76,4.94,3.75,3.3,5.63,7.89,5.63,13.78v.16c0,4.59-1.12,8.33-3.36,11.22-2.24,2.89-5.17,5.01-8.79,6.36l13.86,20.26h-14.59ZM1007.89,286.19c0-2.7-.86-4.73-2.59-6.08-1.73-1.35-4.13-2.03-7.21-2.03h-12.4v16.29h12.64c3.08,0,5.44-.73,7.09-2.19,1.65-1.46,2.47-3.4,2.47-5.83v-.16Z" fill="currentColor"/>
        <path class="cls-1" d="M1136.1,314.27c-1.02,2.19-2.44,4.02-4.27,5.51-1.83,1.49-4,2.62-6.53,3.4-2.53.78-5.34,1.17-8.42,1.17-4.32,0-8.56-.74-12.72-2.23-4.16-1.49-7.94-3.77-11.35-6.85l7.37-8.83c2.59,2.11,5.25,3.78,7.98,5.02,2.73,1.24,5.71,1.86,8.95,1.86,2.59,0,4.6-.47,6.04-1.42,1.43-.94,2.15-2.25,2.15-3.93v-.16c0-.81-.15-1.53-.45-2.15-.3-.62-.87-1.2-1.71-1.74-.84-.54-2-1.08-3.49-1.62-1.49-.54-3.43-1.11-5.81-1.7-2.87-.7-5.47-1.49-7.8-2.35-2.33-.86-4.31-1.93-5.93-3.2-1.63-1.27-2.88-2.85-3.78-4.74-.89-1.89-1.34-4.24-1.34-7.05v-.16c0-2.59.48-4.93,1.45-7.01.97-2.08,2.32-3.88,4.07-5.39s3.83-2.67,6.25-3.49c2.42-.81,5.09-1.21,8.01-1.21,4.16,0,7.98.62,11.47,1.86,3.48,1.24,6.69,3.03,9.6,5.35l-6.48,9.4c-2.54-1.73-5.02-3.09-7.46-4.09-2.43-1-4.86-1.5-7.29-1.5s-4.25.47-5.47,1.42c-1.22.95-1.82,2.12-1.82,3.53v.16c0,.92.18,1.72.53,2.39.35.68.99,1.28,1.91,1.82.92.54,2.18,1.05,3.78,1.54,1.6.49,3.61,1.05,6.05,1.7,2.87.76,5.43,1.61,7.68,2.55,2.25.95,4.14,2.08,5.69,3.4,1.54,1.32,2.71,2.88,3.49,4.66s1.18,3.92,1.18,6.4v.16c0,2.81-.51,5.31-1.53,7.5Z" fill="currentColor"/>
        <path class="cls-1" d="M174.75,41.82c-6.99-2.83-14.37-4.27-21.94-4.27-7.57,0-14.95,1.44-21.94,4.27-7.23,2.93-13.72,7.24-19.29,12.81-5.57,5.57-9.87,12.05-12.81,19.29-2.83,6.99-4.27,14.37-4.27,21.94,0,7.57,1.44,14.95,4.27,21.94.75,1.84,1.58,3.63,2.5,5.37.58,1.1-.84,2.15-1.72,1.27L34.88,59.76c-2.94-2.94-4.96-6.64-5.83-10.69-.85-3.95-.58-8.03.77-11.83.01-.03.03-.08.04-.12.16-.54-.04-1.12-.51-1.45-.52-.36-1.24-.26-1.69.19L.41,63.12c-.43.43-.54,1.1-.23,1.62s.93.74,1.49.58c.04-.01.08-.03.12-.04,3.79-1.35,7.88-1.62,11.82-.77,4.05.87,7.75,2.89,10.69,5.83l64.68,64.68c.88.88-.17,2.31-1.27,1.72-1.74-.92-3.53-1.76-5.37-2.5-6.99-2.83-14.37-4.27-21.94-4.27-7.57,0-14.95,1.44-21.94,4.27-7.23,2.93-13.72,7.24-19.29,12.81-5.57,5.57-9.87,12.05-12.81,19.29-2.83,6.99-4.27,14.37-4.27,21.94,0,7.57,1.44,14.95,4.27,21.94,2.93,7.23,7.24,13.72,12.81,19.29l39.69,39.69c.85.85,2.22.85,3.07,0l73.57-73.57c.88-.88,2.31.17,1.72,1.27-.92,1.74-1.76,3.53-2.51,5.37-2.83,6.99-4.27,14.37-4.27,21.94,0,7.57,1.44,14.95,4.27,21.94,2.93,7.23,7.24,13.72,12.81,19.29l39.69,39.69c.85.85,2.22.85,3.07,0l79.39-79.39c.85-.85.85-2.22,0-3.07l-39.69-39.69c-5.57-5.57-12.05-9.87-19.29-12.81-6.99-2.83-14.37-4.27-21.94-4.27-7.57,0-14.95,1.44-21.94,4.27-1.84.75-3.63,1.58-5.37,2.51-1.1.58-2.15-.84-1.27-1.72l73.57-73.57c.85-.85.85-2.22,0-3.07l-39.69-39.69c-5.57-5.57-12.05-9.87-19.29-12.81Z" fill="currentColor"/>
    </g>
</svg>